# xmcd
#
# Track frame offsets: 
#        150
#        20528
#        29382
#        44052
#        61780
#        81411
#        100123
#        111943
#        130476
#        149235
#        163508
#        178349
#        194284
#        215262
#        253745
#
# Disc length: 4303 seconds
#
# Revision: 9
# Processed by: cddbd v1.5.2PL0 Copyright (c) Steve Scherf et al.
# Submitted via: ExactAudioCopy v1.3
#
DISCID=e410cd0f
DTITLE=Nitty Gritty Dirt Band - Will the Circle Be Unbroken, Vol. III 
DTITLE=(Disc2)
DYEAR=2002
DGENRE=Bluegrass
TTITLE0=Taj Mahal, Nitty Gritty Dirt Band - Fishin' Blues
TTITLE1=Jimmy Martin, Nitty Gritty Dirt Band - Save It, Save It
TTITLE2=Dwight Yoakam, Nitty Gritty Dirt Band - Wheels
TTITLE3=Roll in My Sweet Baby's Arms (w Willie Nelson)
TTITLE4=Matraca Berg and Emmylou Harris, Nitty Gritty Dirt Band - Oh C
TTITLE4=umberland
TTITLE5=Doc Watson, Nitty Gritty Dirt Band - I Am a Pilgrim
TTITLE6=Earl Scruggs, Nitty Gritty Dirt Band - Sallie Ann
TTITLE7=Alison Krauss, Nitty Gritty Dirt Band - Catfish John
TTITLE8=Roll the Stone Away
TTITLE9=Vince Gill, Nitty Gritty Dirt Band - All Prayed Up
TTITLE10=Douglas, Duncan, McCoury and Rice, Nitty Gritty Dirt Band - R
TTITLE10=eturn to Dismal Swamp
TTITLE11=Rodney Dillard and Ricky Skaggs, Nitty Gritty Dirt Band - The
TTITLE11=re Is a Time
TTITLE12=Mahal, Krauss and Watson, Nitty Gritty Dirt Band - Will the C
TTITLE12=ircle Be Unbroken (Glory, Glory)
TTITLE13=Randy Scruggs, Nitty Gritty Dirt Band - Farther Along 
TTITLE14=Nitty Gritty Dirt Band - Data Track
EXTD=(c)2002 Capitol Records Nashville\nupc 724354017704 YEAR: 2002
EXTT0=Taj Mahal, Vassar Clements
EXTT1=Jimmy Martin
EXTT2=Dwight Yoakum
EXTT3=Willie Nelson
EXTT4=Matraca Berg, Emmylou Harris
EXTT5=Doc Watson
EXTT6=Earl Scruggs
EXTT7=Allison Kraus
EXTT8=
EXTT9=Vince Gill
EXTT10=
EXTT11=Rodney Dillard, Ricky Skaggs
EXTT12=Taj Mahal, Doc Watson, Allison Kraus
EXTT13=Randy Scruggs
EXTT14=
PLAYORDER=
